{
	"asset":{
		"generator":"Khronos glTF Blender I/O v4.2.57",
		"version":"2.0"
	},
	"scene":0,
	"scenes":[
		{
			"name":"Scene",
			"nodes":[
				19
			]
		}
	],
	"nodes":[
		{
			"name":"B_Sniper_Rifle_Basic",
			"rotation":[
				2.3841853646899835e-07,
				0.7071066498756409,
				-8.038871895628755e-14,
				0.70710688829422
			],
			"translation":[
				3.344023029087665e-23,
				0,
				1.88870601897464e-15
			]
		},
		{
			"name":"B_Sniper_Rifle_Sight",
			"rotation":[
				-3.3964576573453087e-07,
				0.7071073055267334,
				4.5717422381130746e-07,
				0.7071062326431274
			],
			"scale":[
				1,
				0.9999999403953552,
				1
			],
			"translation":[
				-9.93164395168833e-09,
				-1.4179330478245804e-15,
				1.5078700954518354e-08
			]
		},
		{
			"name":"B_Sniper_Rifle_Sight_Detail_01",
			"rotation":[
				-3.39645708891112e-07,
				0.7071073055267334,
				4.57174195389598e-07,
				0.7071062326431274
			],
			"scale":[
				1,
				0.9999999403953552,
				1
			],
			"translation":[
				-1.6618102449683647e-08,
				-5.961959983862009e-16,
				7.425194326060591e-08
			]
		},
		{
			"children":[
				2
			],
			"name":"P_Sniper_Rifle_Sight_Detail_01",
			"rotation":[
				0,
				-3.341809674714232e-22,
				1.174928674929706e-22,
				1
			],
			"translation":[
				0.17538408935070038,
				-2.9802318834981634e-08,
				-0.07648423314094543
			]
		},
		{
			"name":"B_Sniper_Rifle_Sight_Detail_02",
			"rotation":[
				-2.992451868522039e-07,
				0.7071073055267334,
				4.1677367335068993e-07,
				0.7071062326431274
			],
			"scale":[
				1,
				0.9999999403953552,
				1
			],
			"translation":[
				-1.7745323432905025e-08,
				-1.4901160305669237e-08,
				1.4581471141639213e-08
			]
		},
		{
			"children":[
				4
			],
			"name":"P_Sniper_Rifle_Sight_Detail_02",
			"rotation":[
				0,
				1.819797347616661e-22,
				4.155279498263553e-08,
				1
			],
			"translation":[
				-0.1647617518901825,
				2.9802322387695312e-08,
				-0.07073512673377991
			]
		},
		{
			"children":[
				1,
				3,
				5
			],
			"name":"P_Sniper_Rifle_Sight",
			"rotation":[
				0,
				3.178651297730539e-08,
				4.564488037128093e-24,
				1
			],
			"translation":[
				0.16841858625411987,
				-2.9802322387695312e-08,
				-0.11360486596822739
			]
		},
		{
			"name":"B_Sniper_Rifle_Detail_02",
			"rotation":[
				-4.2302079350520216e-07,
				0.7071073651313782,
				5.643705094371398e-07,
				0.7071061730384827
			],
			"scale":[
				1,
				0.9999999403953552,
				1
			],
			"translation":[
				-5.7636867722976604e-08,
				6.404827335160235e-09,
				1.528186643895424e-08
			]
		},
		{
			"children":[
				7
			],
			"name":"P_Sniper_Rifle_Detail_02",
			"rotation":[
				0,
				3.178651297730539e-08,
				4.564488037128093e-24,
				1
			],
			"translation":[
				0.25131940841674805,
				0.05282729119062424,
				-0.10004786401987076
			]
		},
		{
			"name":"B_Sniper_Rifle_Detail_03_L",
			"rotation":[
				1.0430812125150624e-07,
				1.6391268786719593e-07,
				-1.2637229929168825e-07,
				1
			],
			"translation":[
				-4.244022022703575e-08,
				1.0154735718970187e-08,
				-1.447427848688676e-07
			]
		},
		{
			"children":[
				9
			],
			"name":"P_Sniper_Rifle_Detail_03_L",
			"rotation":[
				0.30070605874061584,
				1.210334289680759e-06,
				-4.567854716697184e-07,
				0.9537169337272644
			],
			"scale":[
				1,
				0.9999999403953552,
				1
			],
			"translation":[
				0.5002538561820984,
				-0.03197016194462776,
				-0.03234283626079559
			]
		},
		{
			"name":"B_Sniper_Rifle_Detail_03_R",
			"rotation":[
				1.4901101685893536e-08,
				5.820572468451246e-08,
				3.976466445010374e-08,
				1
			],
			"translation":[
				3.1438936787253624e-08,
				5.5392774811480194e-09,
				-1.6102023892017314e-07
			]
		},
		{
			"children":[
				11
			],
			"name":"P_Sniper_Rifle_Detail_03_R",
			"rotation":[
				4.930776071887522e-07,
				-0.9537169337272644,
				0.30070608854293823,
				1.0952309139611316e-06
			],
			"scale":[
				1,
				0.9999999403953552,
				0.9999999403953552
			],
			"translation":[
				0.5002538561820984,
				0.03197457641363144,
				-0.03234294801950455
			]
		},
		{
			"name":"B_Sniper_Rifle_Trigger",
			"rotation":[
				-5.143290948694812e-08,
				9.9949815535183e-08,
				-9.994992922202073e-08,
				1
			],
			"translation":[
				2.0346842433127676e-08,
				7.4505792646561986e-09,
				2.3670878590564826e-08
			]
		},
		{
			"children":[
				13
			],
			"name":"P_Sniper_Rifle_Trigger",
			"rotation":[
				-4.4012584027456015e-21,
				-0.707106351852417,
				-2.7750930101454156e-21,
				0.7071071863174438
			],
			"translation":[
				0.04654557257890701,
				-1.1175870007207322e-08,
				-0.032292917370796204
			]
		},
		{
			"name":"B_Sniper_Rifle_Detail_01",
			"rotation":[
				2.2630834450865223e-07,
				0.7071067690849304,
				-1.4282625748762712e-08,
				0.7071067690849304
			],
			"scale":[
				1,
				0.9999999403953552,
				1
			],
			"translation":[
				5.477741871207087e-11,
				3.725290298461914e-09,
				-5.881801157237021e-10
			]
		},
		{
			"children":[
				15
			],
			"name":"P_Sniper_Rifle_Detail_01",
			"rotation":[
				0,
				3.178651297730539e-08,
				4.564488037128093e-24,
				1
			],
			"translation":[
				0.006727990694344044,
				9.755664912309962e-17,
				-0.03665930777788162
			]
		},
		{
			"children":[
				0,
				6,
				8,
				10,
				12,
				14,
				16
			],
			"name":"P_Sniper_Rifle_Basic",
			"rotation":[
				0.5000000596046448,
				-0.5000001788139343,
				0.4999999701976776,
				0.4999999701976776
			],
			"translation":[
				-2.8610228852699038e-08,
				-3.1763740570746056e-22,
				2.1175826205712405e-22
			]
		},
		{
			"mesh":0,
			"name":"SK_Sniper_Rifle_Full.001",
			"skin":0
		},
		{
			"children":[
				18,
				17
			],
			"name":"SK_Sniper_Rifle_Full"
		}
	],
	"materials":[
		{
			"doubleSided":true,
			"name":"M_Sniper_Rifle_1",
			"normalTexture":{
				"index":0
			},
			"occlusionTexture":{
				"index":1
			},
			"pbrMetallicRoughness":{
				"baseColorTexture":{
					"index":2
				},
				"metallicRoughnessTexture":{
					"index":1
				}
			}
		}
	],
	"meshes":[
		{
			"name":"SK_Sniper_Rifle_Full",
			"primitives":[
				{
					"attributes":{
						"POSITION":0,
						"NORMAL":1,
						"TEXCOORD_0":2,
						"TEXCOORD_1":3,
						"JOINTS_0":4,
						"WEIGHTS_0":5
					},
					"indices":6,
					"material":0
				}
			]
		}
	],
	"textures":[
		{
			"sampler":0,
			"source":0
		},
		{
			"sampler":0,
			"source":1
		},
		{
			"sampler":0,
			"source":2
		}
	],
	"images":[
		{
			"mimeType":"image/png",
			"name":"T_Sniper_Rifle_Normal",
			"uri":"T_Sniper_Rifle_Normal.png"
		},
		{
			"mimeType":"image/png",
			"name":"M_Sniper_Rifle_1_Occlusion-M_Sniper_Rifle_1_MetallicRoughness",
			"uri":"M_Sniper_Rifle_1_Occlusion-M_Sniper_Rifle_1_MetallicRoughness.png"
		},
		{
			"mimeType":"image/png",
			"name":"T_Sniper_Rifle_Albedo_01",
			"uri":"T_Sniper_Rifle_Albedo_01.png"
		}
	],
	"skins":[
		{
			"inverseBindMatrices":7,
			"joints":[
				17,
				0,
				6,
				1,
				3,
				2,
				5,
				4,
				8,
				7,
				10,
				9,
				12,
				11,
				14,
				13,
				16,
				15
			],
			"name":"SK_Sniper_Rifle_Full"
		}
	],
	"accessors":[
		{
			"bufferView":0,
			"componentType":5126,
			"count":64536,
			"max":[
				0.05282023921608925,
				0.2515806555747986,
				1.3088144063949585
			],
			"min":[
				-0.07466652989387512,
				-0.08086720108985901,
				-0.34922513365745544
			],
			"type":"VEC3"
		},
		{
			"bufferView":1,
			"componentType":5126,
			"count":64536,
			"type":"VEC3"
		},
		{
			"bufferView":2,
			"componentType":5126,
			"count":64536,
			"type":"VEC2"
		},
		{
			"bufferView":3,
			"componentType":5126,
			"count":64536,
			"type":"VEC2"
		},
		{
			"bufferView":4,
			"componentType":5121,
			"count":64536,
			"type":"VEC4"
		},
		{
			"bufferView":5,
			"componentType":5126,
			"count":64536,
			"type":"VEC4"
		},
		{
			"bufferView":6,
			"componentType":5123,
			"count":235068,
			"type":"SCALAR"
		},
		{
			"bufferView":7,
			"componentType":5126,
			"count":18,
			"type":"MAT4"
		}
	],
	"bufferViews":[
		{
			"buffer":0,
			"byteLength":774432,
			"byteOffset":0,
			"target":34962
		},
		{
			"buffer":0,
			"byteLength":774432,
			"byteOffset":774432,
			"target":34962
		},
		{
			"buffer":0,
			"byteLength":516288,
			"byteOffset":1548864,
			"target":34962
		},
		{
			"buffer":0,
			"byteLength":516288,
			"byteOffset":2065152,
			"target":34962
		},
		{
			"buffer":0,
			"byteLength":258144,
			"byteOffset":2581440,
			"target":34962
		},
		{
			"buffer":0,
			"byteLength":1032576,
			"byteOffset":2839584,
			"target":34962
		},
		{
			"buffer":0,
			"byteLength":470136,
			"byteOffset":3872160,
			"target":34963
		},
		{
			"buffer":0,
			"byteLength":1152,
			"byteOffset":4342296
		}
	],
	"samplers":[
		{
			"magFilter":9729,
			"minFilter":9987
		}
	],
	"buffers":[
		{
			"byteLength":4343448,
			"uri":"SK_Sniper_Rifle_Full.bin"
		}
	]
}
